<svg width="81" height="81" viewBox="0 0 81 81" fill="none" xmlns="http://www.w3.org/2000/svg">
<path d="M81 53.8504C78.7958 53.859 76.5976 53.8598 74.4055 53.853C73.8655 53.8512 73.4821 53.7977 73.255 53.6922C72.332 53.2653 71.6172 52.2869 71.1095 51.4383C70.747 50.8323 70.3845 50.1668 70.022 49.4416C69.8009 49.001 69.5592 48.644 69.2969 48.3706C68.4614 47.4976 67.1013 47.5001 66.2375 48.3192C66.0704 48.4769 65.8582 48.8313 65.6012 49.3825C62.39 56.2458 60.6542 59.9568 60.3937 60.5156C60.3882 60.5262 60.3772 60.5329 60.3651 60.5329C60.3491 60.5329 60.3355 60.5211 60.3333 60.5052C58.8335 43.9408 57.3873 27.9716 55.9947 12.5976C55.9287 11.8656 55.8285 11.3646 55.6939 11.0946C54.7658 9.21876 52.1767 9.05798 51.0121 10.7745C50.8201 11.0582 50.6436 11.5635 50.4825 12.2904C50.324 13.0044 47.2354 26.322 41.2168 52.2433C41.2133 52.2567 41.201 52.2662 41.187 52.2662C41.1759 52.2662 41.1658 52.2603 41.1603 52.2508C39.9227 49.9726 39.0075 48.2845 38.4144 47.1864C38.0785 46.5641 37.8715 46.2042 37.7935 46.1064C36.9002 44.9904 35.0991 45.0688 34.3228 46.2581C33.2455 47.9065 32.5784 48.9955 31.4047 50.177C28.9674 52.6303 25.8899 53.8465 22.3343 53.8504C14.8904 53.8573 7.4457 53.8586 0.000152074 53.8543V0.00131812L80.9513 0C80.9769 0 80.9976 0.0207367 80.9976 0.04629L81 53.8504ZM80.9974 58.1357L80.9884 80.9473C80.9885 80.9756 80.9655 80.9986 80.9371 80.9986L0 81V58.1281C6.92109 58.1341 13.8418 58.1341 20.762 58.1281C22.733 58.1264 24.0549 58.0822 24.7277 57.9956C27.5532 57.6343 30.2051 56.634 32.5023 54.9098C33.7501 53.9721 34.8612 52.8767 35.8356 51.6235C35.85 51.6054 35.8718 51.595 35.8948 51.595C35.9227 51.595 35.9484 51.6104 35.9616 51.635C36.4535 52.5582 37.8174 55.08 40.0533 59.2003C40.8233 60.6185 42.7168 60.7946 43.6938 59.5153C43.8651 59.2916 44.028 58.8416 44.1822 58.1653C46.6957 47.15 49.5007 34.8695 52.597 21.3239C52.6003 21.3123 52.6109 21.3043 52.623 21.3043C52.6365 21.3043 52.648 21.3143 52.6497 21.3277C54.9748 47.693 56.2872 62.6032 56.5871 66.0584C56.6634 66.9336 56.7637 67.498 56.888 67.7517C57.496 68.9963 59.0566 69.5569 60.3189 68.8651C61.067 68.4537 61.2779 67.9008 61.6455 67.1525C61.937 66.5594 63.9942 62.2941 67.8172 54.3569C67.8243 54.3429 67.8384 54.3342 67.854 54.3342C67.8668 54.3342 67.879 54.3402 67.8867 54.3503C68.0881 54.6144 68.2205 54.7902 68.2838 54.8776C69.6375 56.7419 71.5863 58.1099 73.9708 58.1164C76.3027 58.1223 78.6449 58.1288 80.9974 58.1357Z" fill="#0079C8"/>
</svg>
