<svg width="608" height="142" viewBox="0 0 608 142" fill="none" xmlns="http://www.w3.org/2000/svg">
<path d="M500.458 0L491.218 75.1954C491.21 75.2605 491.155 75.3099 491.089 75.3099C491.089 75.3099 491.088 75.3099 491.088 75.3099L478.777 75.3101C478.777 75.31 478.777 75.31 478.777 75.31C478.747 75.31 478.723 75.2857 478.723 75.2558C478.723 75.2537 478.723 75.2516 478.723 75.2495L487.959 0H500.458ZM304.372 134.301L306.79 114.614C306.79 114.613 306.79 114.612 306.79 114.611C306.793 114.57 306.763 114.536 306.724 114.533C306.723 114.533 306.721 114.533 306.719 114.533L303.775 114.533C303.772 114.533 303.769 114.533 303.767 114.532C303.711 114.529 303.668 114.479 303.672 114.421C303.673 114.419 303.673 114.417 303.673 114.415L304.228 109.9C304.235 109.837 304.289 109.79 304.352 109.79C304.352 109.79 304.353 109.79 304.353 109.79L307.303 109.79C307.303 109.79 307.303 109.79 307.303 109.79C307.358 109.79 307.403 109.748 307.407 109.694C307.534 108.321 307.71 107.167 307.937 106.231C309.085 101.484 312.556 99.6518 317.121 99.8978C318.345 99.9631 319.516 100.163 320.634 100.498C320.687 100.513 320.722 100.565 320.716 100.619L320.154 105.199C320.154 105.203 320.153 105.207 320.152 105.211C320.137 105.272 320.075 105.31 320.015 105.295C320.01 105.294 320.006 105.293 320.002 105.291C318.2 104.605 315.172 104.161 313.941 106.069C313.217 107.19 313.101 108.429 312.975 109.734C312.975 109.736 312.975 109.739 312.975 109.742C312.975 109.783 313.009 109.817 313.05 109.817C313.05 109.817 313.05 109.817 313.051 109.817L319.464 109.817C319.464 109.817 319.464 109.817 319.464 109.817C319.499 109.817 319.527 109.845 319.527 109.88C319.527 109.882 319.527 109.885 319.526 109.888L318.967 114.452C318.961 114.499 318.921 114.533 318.875 114.533L312.592 114.533C312.591 114.533 312.591 114.533 312.591 114.533C312.528 114.533 312.476 114.579 312.468 114.641L310.057 134.276C310.046 134.355 309.979 134.415 309.898 134.415L304.472 134.415C304.469 134.415 304.467 134.415 304.464 134.415C304.409 134.411 304.367 134.362 304.371 134.306C304.371 134.304 304.372 134.302 304.372 134.3L304.372 134.301L304.372 134.301ZM381.839 130.75C381.817 130.771 381.577 131.03 381.121 131.528C378.655 134.212 375.635 135.309 372.06 134.82C367.529 134.199 365.493 130.325 365.958 126.047C366.106 124.692 366.769 119.264 367.948 109.763C367.958 109.686 368.022 109.63 368.096 109.631L373.563 109.632C373.563 109.631 373.563 109.631 373.563 109.631C373.6 109.631 373.63 109.661 373.63 109.698C373.63 109.701 373.63 109.704 373.629 109.707C372.725 117.066 372.141 121.827 371.877 123.991C371.556 126.618 372.465 129.178 375.357 129.625C378.674 130.137 381.34 128.47 382.421 125.388C382.604 124.868 382.777 123.945 382.938 122.618C383.784 115.688 384.312 111.379 384.524 109.692C384.53 109.657 384.558 109.633 384.592 109.634L390.161 109.634C390.161 109.634 390.161 109.634 390.161 109.634C390.207 109.634 390.245 109.671 390.245 109.717C390.245 109.72 390.245 109.723 390.244 109.725L387.23 134.265C387.22 134.349 387.147 134.414 387.06 134.415L381.599 134.415C381.596 134.415 381.593 134.415 381.591 134.415C381.537 134.411 381.496 134.364 381.5 134.308C381.5 134.306 381.501 134.304 381.501 134.302L381.931 130.794C381.931 130.792 381.931 130.791 381.931 130.789C381.931 130.759 381.907 130.735 381.877 130.735C381.862 130.735 381.849 130.741 381.839 130.75ZM442.522 130.458C441.28 131.848 440.088 132.871 438.946 133.525C435.279 135.633 430.47 135.406 427.19 132.652C422.565 128.766 422.867 121.429 425.344 116.541C427.474 112.336 431.565 109.365 436.293 109.146C439.833 108.981 442.781 110.401 444.623 113.376C444.633 113.391 444.651 113.4 444.67 113.4C444.697 113.4 444.721 113.38 444.725 113.353L445.174 109.703C445.179 109.663 445.213 109.634 445.252 109.634C445.253 109.634 445.253 109.634 445.253 109.634L450.773 109.634C450.774 109.634 450.774 109.634 450.774 109.634C450.817 109.634 450.851 109.668 450.851 109.711C450.851 109.714 450.851 109.718 450.851 109.721L447.828 134.33C447.821 134.377 447.781 134.413 447.732 134.413C447.732 134.413 447.732 134.413 447.732 134.413L442.228 134.413C442.228 134.413 442.228 134.413 442.228 134.413C442.186 134.413 442.152 134.38 442.152 134.338C442.152 134.335 442.153 134.333 442.153 134.33L442.622 130.504C442.623 130.502 442.623 130.501 442.623 130.499C442.623 130.467 442.596 130.441 442.564 130.441C442.548 130.441 442.533 130.447 442.522 130.458V130.459L442.522 130.458ZM430.086 119.407C429.051 121.982 428.957 125.259 430.647 127.554C432.272 129.764 435.057 130.465 437.642 129.698C440.181 128.943 442.096 127.05 443.071 124.627C444.105 122.055 444.199 118.777 442.509 116.48C440.884 114.272 438.099 113.572 435.514 114.339C432.975 115.094 431.06 116.987 430.086 119.407H430.086ZM401.452 113.628C402.775 112.12 404.051 111.046 405.28 110.405C409.611 108.149 414.969 108.854 418.119 112.738C421.14 116.463 420.858 122.167 419.168 126.37C417.456 130.632 413.732 133.948 409.196 134.747C405.165 135.458 401.619 134.188 399.374 130.696C399.363 130.678 399.344 130.667 399.324 130.667C399.293 130.667 399.268 130.691 399.265 130.721L397.903 141.814C397.896 141.875 397.844 141.92 397.783 141.92C397.783 141.92 397.782 141.92 397.782 141.92L392.285 141.921C392.284 141.92 392.282 141.92 392.281 141.92C392.245 141.919 392.218 141.889 392.22 141.855C392.22 141.853 392.22 141.852 392.22 141.85L396.167 109.728C396.175 109.673 396.221 109.633 396.274 109.634L401.746 109.634C401.749 109.634 401.751 109.634 401.754 109.634C401.808 109.638 401.848 109.685 401.844 109.741C401.844 109.742 401.844 109.744 401.844 109.745L401.37 113.591C401.37 113.598 401.371 113.606 401.373 113.613C401.383 113.638 401.41 113.65 401.433 113.641C401.441 113.638 401.447 113.634 401.452 113.628L401.452 113.628L401.452 113.628ZM413.876 124.648C414.91 122.074 415.006 118.794 413.318 116.497C411.691 114.287 408.906 113.584 406.319 114.352C403.78 115.106 401.865 116.997 400.889 119.42C399.852 121.992 399.756 125.272 401.446 127.569C403.071 129.779 405.856 130.481 408.443 129.714C410.984 128.96 412.899 127.069 413.876 124.648H413.876ZM297.733 113.357C301.994 118.806 300.454 126.999 294.37 131.749C288.286 136.499 279.958 136.01 275.772 130.657C271.587 125.303 273.127 117.11 279.211 112.36C285.296 107.61 293.624 108.099 297.809 113.453L297.733 113.357V113.357ZM280.592 118.148C277.555 122.995 279.47 130.079 286.019 129.994C288.906 129.958 291.408 128.468 292.983 125.958C296.02 121.111 294.105 114.028 287.556 114.112C284.669 114.147 282.168 115.638 280.592 118.148ZM232.347 114.921C232.911 114.055 233.266 113.523 233.414 113.326C235.439 110.624 238.281 109.025 241.671 109.171C241.699 109.172 241.722 109.195 241.722 109.223C241.722 109.226 241.721 109.229 241.721 109.231L241.007 115.052C241 115.113 240.948 115.16 240.887 115.162C240.248 115.185 239.925 115.197 239.918 115.198C234.219 115.671 231.628 119.962 230.993 125.111C230.526 128.918 230.151 131.985 229.869 134.313C229.861 134.373 229.811 134.416 229.753 134.415L224.246 134.415C224.246 134.415 224.246 134.415 224.246 134.415C224.211 134.415 224.183 134.387 224.183 134.353C224.183 134.35 224.183 134.347 224.184 134.344L227.205 109.74C227.212 109.681 227.264 109.635 227.326 109.634L232.8 109.634C232.8 109.634 232.8 109.634 232.801 109.634C232.847 109.634 232.884 109.671 232.884 109.717C232.884 109.72 232.884 109.722 232.884 109.725L232.249 114.883C232.249 114.885 232.249 114.887 232.249 114.889C232.249 114.919 232.273 114.943 232.303 114.943C232.321 114.943 232.337 114.935 232.347 114.921L232.347 114.921H232.347ZM213.006 130.504C213.006 130.502 213.006 130.501 213.006 130.499C213.006 130.467 212.98 130.441 212.948 130.441C212.932 130.441 212.917 130.447 212.906 130.458C211.664 131.848 210.472 132.871 209.33 133.525C205.662 135.631 200.851 135.404 197.574 132.648C192.948 128.762 193.253 121.423 195.729 116.536C197.862 112.331 201.953 109.361 206.682 109.142C210.223 108.979 213.171 110.399 215.011 113.374C215.021 113.389 215.039 113.398 215.057 113.398C215.085 113.398 215.109 113.378 215.113 113.351L215.563 109.701C215.569 109.661 215.602 109.632 215.642 109.632C215.642 109.632 215.643 109.632 215.643 109.632L221.163 109.634C221.163 109.634 221.164 109.634 221.164 109.634C221.207 109.634 221.241 109.668 221.241 109.711C221.241 109.714 221.241 109.718 221.24 109.721L218.211 134.332C218.205 134.38 218.164 134.415 218.116 134.415C218.116 134.415 218.115 134.415 218.115 134.415L212.612 134.413C212.611 134.413 212.611 134.413 212.611 134.413C212.57 134.413 212.536 134.38 212.536 134.338C212.536 134.335 212.536 134.333 212.537 134.33L213.006 130.504L213.006 130.504ZM200.471 119.413C199.437 121.988 199.347 125.263 201.037 127.559C202.664 129.766 205.449 130.465 208.034 129.695C210.573 128.939 212.486 127.044 213.456 124.623C214.491 122.049 214.583 118.771 212.891 116.476C211.264 114.27 208.479 113.572 205.894 114.341C203.355 115.098 201.444 116.991 200.471 119.414V119.413ZM252.419 109.634H258.831C258.831 109.634 258.831 109.634 258.831 109.634C258.889 109.634 258.936 109.68 258.936 109.738C258.936 109.742 258.935 109.746 258.935 109.75L258.357 114.454C258.35 114.499 258.312 114.533 258.267 114.533L251.733 114.533C251.703 114.533 251.677 114.554 251.675 114.583C250.896 120.9 250.391 125.03 250.162 126.973C250.045 127.973 250.36 129.045 251.278 129.468C252.749 130.146 254.996 129.633 256.394 128.962C256.402 128.957 256.41 128.955 256.419 128.955C256.45 128.955 256.475 128.981 256.475 129.012C256.475 129.014 256.475 129.016 256.475 129.018L255.928 133.46C255.92 133.536 255.874 133.603 255.805 133.637C253.544 134.773 251.137 135.11 248.585 134.649C245.078 134.015 243.982 131.253 244.362 127.952C244.478 126.949 245.021 122.51 245.992 114.635C245.992 114.631 245.992 114.628 245.992 114.624C245.992 114.574 245.951 114.533 245.9 114.533C245.9 114.533 245.9 114.533 245.9 114.533L242.96 114.533C242.958 114.533 242.955 114.533 242.953 114.532C242.906 114.529 242.871 114.486 242.874 114.437C242.874 114.435 242.875 114.434 242.875 114.432L243.453 109.727C243.46 109.672 243.506 109.632 243.559 109.634L246.517 109.634C246.566 109.634 246.609 109.597 246.615 109.547L247.429 102.937C247.437 102.875 247.489 102.83 247.549 102.831L252.995 102.831C252.999 102.831 253.001 102.831 253.004 102.831C253.064 102.835 253.109 102.888 253.104 102.949C253.104 102.951 253.104 102.953 253.104 102.955L252.301 109.498C252.3 109.499 252.3 109.502 252.3 109.504C252.295 109.571 252.345 109.629 252.41 109.633C252.413 109.634 252.416 109.634 252.418 109.634L252.419 109.634H252.419ZM356.263 117.387C357.151 117.762 357.794 118.06 358.193 118.281C360.342 119.463 361.619 121.296 361.669 123.877C361.817 131.338 355.226 134.376 348.772 134.407C346.666 134.417 341.473 134.419 333.193 134.413C333.193 134.413 333.193 134.413 333.193 134.413C333.165 134.413 333.143 134.391 333.143 134.363C333.143 134.361 333.143 134.359 333.143 134.357L337.161 101.649C337.168 101.599 337.21 101.561 337.261 101.561C337.261 101.561 337.261 101.561 337.262 101.561C344.997 101.543 350.155 101.55 352.733 101.582C354.884 101.607 357.567 102.268 359.261 103.648C361.466 105.443 362.096 107.878 361.569 110.657C361.093 113.155 359.713 115.13 357.427 116.582C357.255 116.692 356.865 116.92 356.257 117.266C356.251 117.269 356.246 117.274 356.241 117.279C356.215 117.307 356.217 117.35 356.244 117.375C356.25 117.38 356.256 117.384 356.263 117.387L356.263 117.387V117.387ZM341.234 115.413C344.412 115.429 347.119 115.427 349.356 115.406C352.041 115.379 355.001 114.381 355.662 111.55C356.265 108.958 355.041 107.468 352.677 106.909C352.116 106.775 351.667 106.707 351.329 106.703C349.732 106.685 346.715 106.681 342.277 106.692C342.277 106.692 342.277 106.692 342.277 106.692C342.243 106.692 342.215 106.717 342.212 106.75L341.159 115.327C341.158 115.329 341.158 115.331 341.158 115.332C341.155 115.373 341.187 115.409 341.23 115.412C341.231 115.412 341.233 115.413 341.234 115.413L341.234 115.413L341.234 115.413ZM340.533 120.418L339.45 129.235C339.45 129.235 339.45 129.236 339.45 129.238C339.447 129.273 339.472 129.304 339.506 129.307C339.508 129.308 339.51 129.308 339.512 129.308C343.936 129.311 347.196 129.309 349.291 129.302C352.351 129.291 355.516 128.128 355.925 124.677C356.303 121.494 353.322 120.385 350.755 120.322C349.338 120.286 345.976 120.278 340.668 120.297C340.601 120.296 340.542 120.348 340.533 120.417L340.533 120.418H340.533ZM169.964 134.415H164.433C164.43 134.415 164.427 134.415 164.425 134.415C164.368 134.411 164.325 134.36 164.329 134.302C164.329 134.3 164.329 134.298 164.329 134.297L168.343 101.635C168.349 101.59 168.387 101.557 168.431 101.557C170.066 101.55 174.441 101.553 181.555 101.564C188.525 101.574 193.52 105.679 192.377 113.02C191.273 120.087 185.075 123.783 178.276 123.85C176.462 123.868 174.195 123.87 171.474 123.856C171.424 123.855 171.379 123.894 171.372 123.946L170.102 134.295C170.094 134.362 170.035 134.414 169.965 134.415L169.964 134.415L169.964 134.415ZM172.157 118.655C174.011 118.645 175.952 118.646 177.981 118.657C179.255 118.662 180.243 118.586 180.944 118.429C184.545 117.616 186.867 114.99 186.575 111.162C186.339 108.062 183.289 106.836 180.572 106.826C178.24 106.817 175.917 106.816 173.602 106.821C173.529 106.822 173.468 106.876 173.46 106.947L172.038 118.521C172.037 118.526 172.037 118.531 172.037 118.536C172.037 118.601 172.09 118.654 172.156 118.654C172.156 118.654 172.156 118.654 172.157 118.654L172.156 118.655H172.157ZM131.458 90.235C127.88 90.2489 124.313 90.2503 120.755 90.2392C119.879 90.2364 119.257 90.1495 118.888 89.9785C117.39 89.2864 116.23 87.6998 115.406 86.324C114.818 85.3413 114.229 84.2622 113.641 83.0863C113.282 82.372 112.89 81.7931 112.464 81.3497C111.108 79.9342 108.901 79.9384 107.499 81.2664C107.228 81.5221 106.884 82.0968 106.466 82.9905C101.255 94.119 98.4377 100.136 98.0149 101.042C98.0061 101.06 97.9882 101.071 97.9686 101.071C97.9426 101.071 97.9205 101.051 97.917 101.026C95.4829 74.167 93.1358 48.2736 90.8757 23.3453C90.7686 22.1584 90.6059 21.3461 90.3875 20.9082C88.8812 17.8666 84.6794 17.6059 82.7893 20.3891C82.4777 20.8492 82.1912 21.6685 81.9298 22.8471C81.6725 24.0049 76.6599 45.5988 66.8921 87.6292C66.8864 87.6509 66.8665 87.6664 66.8437 87.6664C66.8258 87.6664 66.8093 87.6569 66.8004 87.6414C64.792 83.9474 63.3066 81.2101 62.344 79.4297C61.7989 78.4207 61.463 77.837 61.3364 77.6785C59.8865 75.8689 56.9636 75.9961 55.7036 77.9245C53.9552 80.5972 52.8725 82.363 50.9677 84.2789C47.0121 88.2567 42.0176 90.2288 36.247 90.2351C24.1662 90.2462 12.0839 90.2483 0.000246806 90.2414V2.92091L131.379 2.91877C131.42 2.91877 131.454 2.95239 131.454 2.99383L131.458 90.235H131.458ZM131.453 97.1835L131.439 134.172C131.439 134.217 131.402 134.255 131.356 134.255L0 134.257V97.1711C11.2325 97.1808 22.4643 97.1808 33.6953 97.1711C36.8942 97.1683 39.0395 97.0967 40.1314 96.9563C44.717 96.3706 49.021 94.7486 52.7491 91.9529C54.7742 90.4324 56.5774 88.6562 58.1588 86.6242C58.1822 86.595 58.2175 86.578 58.2549 86.578C58.3002 86.578 58.3418 86.6029 58.3633 86.6428C59.1616 88.1397 61.3751 92.2288 65.0038 98.9097C66.2535 101.209 69.3265 101.495 70.9121 99.4205C71.1902 99.0577 71.4545 98.3281 71.7048 97.2315C75.7841 79.3706 80.3363 59.4583 85.3614 37.4946C85.3669 37.4758 85.3841 37.4629 85.4036 37.4629C85.4255 37.4629 85.4442 37.479 85.4471 37.5008C89.2204 80.2511 91.3504 104.427 91.8372 110.03C91.961 111.449 92.1238 112.364 92.3254 112.775C93.3122 114.794 95.8449 115.703 97.8936 114.581C99.1078 113.914 99.45 113.017 100.047 111.804C100.52 110.842 103.858 103.926 110.063 91.0563C110.074 91.0337 110.097 91.0195 110.123 91.0195C110.143 91.0195 110.163 91.0292 110.176 91.0457C110.502 91.4738 110.717 91.7589 110.82 91.9006C113.017 94.9235 116.18 97.1417 120.05 97.1522C123.834 97.1618 127.635 97.1722 131.453 97.1834L131.453 97.1835ZM540.637 67.0317C538.937 69.0914 537.078 70.9719 534.904 72.5292C531.232 75.1588 527.082 76.4645 522.455 76.4464C516.572 76.4214 511.097 74.4472 507.962 69.3145C505.621 65.4847 505.122 60.4709 505.669 55.9761C506.698 47.5092 508.132 35.8233 509.971 20.9187C509.975 20.8786 510.01 20.8477 510.052 20.8479L522.369 20.8478C522.372 20.8478 522.374 20.8479 522.376 20.848C522.426 20.8515 522.463 20.8952 522.459 20.9457C522.459 20.9473 522.459 20.9491 522.459 20.9506C520.828 34.2412 519.618 44.0672 518.831 50.4285C518.382 54.058 518.113 57.7648 520.033 60.8649C522.188 64.3464 526.362 65.3513 530.276 64.9114C534.293 64.4611 537.45 62.6453 539.746 59.464C540.804 57.9977 541.629 56.1839 542.22 54.0228C542.402 53.3612 542.693 51.3716 543.092 48.054C543.614 43.7316 544.722 34.7011 546.416 20.9625C546.423 20.8986 546.479 20.8489 546.546 20.8478H558.971C558.971 20.8478 558.971 20.8478 558.971 20.8478C558.998 20.8478 559.019 20.8693 559.019 20.8958C559.019 20.8979 559.019 20.9 559.019 20.902L552.341 75.2519C552.338 75.2851 552.309 75.3118 552.273 75.3122L539.861 75.3123C539.86 75.3122 539.86 75.3122 539.86 75.3122C539.8 75.3122 539.751 75.2637 539.751 75.2037C539.751 75.1989 539.751 75.194 539.752 75.1892L540.747 67.0776C540.747 67.0756 540.747 67.0736 540.747 67.0716C540.747 67.037 540.72 67.009 540.685 67.009C540.666 67.009 540.649 67.0174 540.637 67.0318L540.637 67.0317ZM607.977 26.2098L602.061 34.8762C602.038 34.9088 602 34.9283 601.96 34.9283C601.936 34.9283 601.912 34.9211 601.892 34.9075C598.262 32.4684 594.022 30.6859 589.808 30.0041C585.79 29.3558 579.69 30.1438 578.926 35.2765C578.692 36.8442 579.481 38.191 580.708 39.0958C582.421 40.3592 584.277 41.0679 586.376 41.8164C588.631 42.6232 593.584 44.0992 596.864 45.6795C598.841 46.6301 600.922 47.9664 602.492 49.6947C605.603 53.1116 605.851 57.3667 604.748 61.753C601.481 74.7536 587.263 78.0058 575.876 75.6083C570.201 74.413 565.172 71.9615 560.788 68.2533C560.757 68.2272 560.753 68.182 560.778 68.1502L567.303 59.7996C567.32 59.7778 567.346 59.7649 567.374 59.7649C567.395 59.7649 567.415 59.772 567.431 59.7849C570.122 62.0059 573.098 63.7287 576.36 64.9531C580.063 66.3436 584.513 66.9524 588.377 65.9413C590.957 65.2637 593.092 63.5167 593.565 60.7606C593.878 58.9426 593.235 57.4861 591.635 56.3909C589.979 55.2568 588.185 54.6 586.234 53.9559C585.205 53.6154 583.035 52.9316 579.725 51.9045C576.731 50.9768 573.504 49.582 571.075 47.4723C568.331 45.0901 567.032 42.0137 567.178 38.243C567.426 31.774 570.737 26.4099 576.287 23.1431C580.935 20.4078 586.528 19.4948 591.871 20.0722C597.781 20.7116 603.138 22.6963 607.944 26.0263C607.979 26.0513 608 26.0919 608 26.1351C608 26.1617 607.992 26.1877 607.977 26.2097V26.2098H607.977ZM315.406 32.9082C316.908 30.1437 318.746 27.7081 320.92 25.6011C324.986 21.6608 330.27 19.622 336.104 19.7992C336.169 19.8009 336.221 19.8545 336.221 19.9201C336.221 19.9249 336.221 19.9298 336.22 19.9347L334.626 32.9227C334.619 32.98 334.57 33.0229 334.513 33.0229C334.511 33.0229 334.509 33.0228 334.508 33.0228C327.615 32.8476 321.483 35.5245 317.45 41.1533C314.767 44.8997 313.278 49.5842 312.708 54.1769C311.646 62.7703 310.785 69.7744 310.125 75.1893C310.116 75.2592 310.056 75.3117 309.986 75.3121L297.674 75.3123C297.674 75.3121 297.674 75.3121 297.674 75.3121C297.644 75.3121 297.62 75.2878 297.62 75.2579C297.62 75.2559 297.62 75.2537 297.62 75.2517L304.29 20.975C304.298 20.9033 304.36 20.8485 304.434 20.8478H316.672C316.672 20.8478 316.673 20.8478 316.673 20.8478C316.734 20.8478 316.784 20.8973 316.784 20.9583C316.784 20.9631 316.783 20.9681 316.783 20.9728L315.32 32.879C315.32 32.8813 315.32 32.8837 315.32 32.886C315.32 32.9113 315.34 32.9319 315.366 32.9319C315.382 32.9319 315.398 32.9228 315.406 32.9082ZM383.086 66.4395C378.017 71.6911 371.82 75.1643 364.575 76.2025C358.765 77.0343 352.495 76.4735 347.213 73.7508C340.309 70.1943 336.095 63.8065 335.108 56.1909C334.412 50.8143 335.196 45.0541 337.168 40.0026C342.202 27.1001 354.473 18.3252 368.618 19.8888C371.918 20.2558 375.146 21.2148 377.966 22.966C387.822 29.0785 389.529 42.0979 387.152 52.4321C387.141 52.4787 387.1 52.5114 387.054 52.5112H347.19C347.19 52.5113 347.19 52.5113 347.19 52.5113C347.133 52.5113 347.088 52.557 347.088 52.6134C347.088 52.6142 347.088 52.6148 347.088 52.6155C347.129 54.1651 347.363 55.6606 347.789 57.1019C350.833 67.4049 362.902 68.1825 370.861 63.9233C372.944 62.8087 374.844 61.4626 376.56 59.8851C376.607 59.8431 376.678 59.8456 376.719 59.89L383.084 66.2478C383.137 66.2994 383.139 66.3849 383.087 66.4385L383.086 66.4396V66.4395ZM375.966 44.1721C376.17 37.309 372.924 30.6524 365.328 29.9936C356.367 29.216 350.054 36.0957 348.018 44.1971C348.017 44.2001 348.017 44.203 348.017 44.2058C348.012 44.2401 348.038 44.2715 348.073 44.2758C348.076 44.2761 348.078 44.2763 348.081 44.2763H375.857H375.857C375.916 44.2763 375.964 44.2303 375.966 44.1721H375.966L375.966 44.1721ZM274.035 66.4291C273.786 66.6973 273.263 67.2616 272.466 68.1219C270.632 70.1038 268.613 71.7654 266.41 73.1066C260.088 76.9592 251.804 77.5867 245.025 74.4887C240.561 72.4457 237.207 69.2449 234.963 64.8863C232.504 60.1101 231.874 54.6855 232.366 49.3027C233.165 40.5529 236.795 32.3201 243.388 26.6016C248.968 21.7629 256.195 19.159 263.593 19.8115C270.123 20.387 275.153 23.7268 278.604 29.1764C278.615 29.1936 278.634 29.2041 278.655 29.2041C278.684 29.2041 278.71 29.1826 278.715 29.1534L279.72 20.9624C279.729 20.896 279.785 20.847 279.85 20.8477H292.163C292.163 20.8478 292.165 20.8478 292.166 20.8479C292.198 20.8495 292.223 20.8761 292.222 20.9071C292.221 20.9087 292.221 20.9102 292.221 20.9118L285.547 75.2351C285.541 75.2796 285.503 75.3125 285.459 75.3121L273.155 75.3123C273.154 75.3122 273.154 75.3122 273.154 75.3122C273.1 75.3122 273.056 75.2683 273.056 75.2142C273.056 75.2107 273.056 75.2072 273.057 75.2037L274.129 66.4729C274.129 66.4704 274.129 66.4681 274.129 66.4656C274.129 66.4357 274.105 66.4114 274.075 66.4114C274.06 66.4114 274.045 66.4179 274.035 66.4292H274.035V66.4291ZM248.309 60.9732C252.899 66.4749 260.91 66.8252 266.791 63.3686C270.629 61.1143 273.408 57.9052 275.13 53.7412C278.13 46.4862 277.394 36.6648 269.858 32.3306C267.117 30.7524 263.802 30.227 260.675 30.7003C250.842 32.1825 245.136 40.9344 244.927 50.5014C244.844 54.2894 245.872 58.0546 248.309 60.9732H248.309ZM414.09 75.1871L422.938 3.1751C422.942 3.13243 422.979 3.09988 423.023 3.10013C435.772 3.10424 444.753 3.10292 449.965 3.09585C452.283 3.09454 453.978 3.14386 455.052 3.24391C459.122 3.6275 463.284 4.6261 466.862 6.76092C471.733 9.66572 474.703 13.8936 475.773 19.4447C476.603 23.756 476.096 28.4759 474.773 32.7246C471.124 44.4264 459.925 50.7892 448.196 51.9107C446.825 52.0427 444.875 52.106 442.346 52.1004C436.522 52.0893 432.305 52.0872 429.697 52.0942C429.66 52.0939 429.628 52.123 429.622 52.1624L426.785 75.2559C426.779 75.2891 426.752 75.3127 426.72 75.312L414.201 75.3121C414.2 75.3119 414.2 75.3119 414.2 75.3119C414.139 75.3119 414.089 75.2624 414.089 75.2014C414.089 75.1966 414.089 75.1917 414.09 75.1869V75.187V75.1871ZM431.079 40.6467C434.674 40.662 439.714 40.6599 446.198 40.6404C451.367 40.6259 456.687 38.7933 460.034 34.7134C461.956 32.3701 462.985 29.5238 463.122 26.1742C463.24 23.241 462.464 20.3618 460.307 18.2688C457.493 15.5356 453.22 14.6663 449.325 14.6559C446.371 14.6461 441.378 14.6434 434.346 14.6475C434.281 14.6467 434.225 14.6958 434.216 14.7616L431.041 40.605C431.041 40.6064 431.041 40.6078 431.041 40.6092C431.041 40.6299 431.058 40.6467 431.078 40.6467C431.078 40.6467 431.078 40.6467 431.079 40.6467L431.079 40.6467ZM220.126 55.6133L227.088 63.6604C227.104 63.6789 227.112 63.7026 227.112 63.7269C227.112 63.7545 227.101 63.7809 227.082 63.8C224.004 66.7452 220.675 69.2511 217.097 71.3178C212.777 73.8125 208.076 75.4073 202.996 76.1022C194.505 77.2634 185.847 76.3023 178.476 71.8243C168.729 65.9036 163.557 55.1461 163.782 43.8801C163.957 35.2018 166.485 27.3047 171.364 20.1887C175.033 14.8351 180.036 10.2548 185.776 7.07767C192.772 3.2056 200.405 1.48495 208.676 1.91581C214.349 2.21185 219.807 3.47525 224.766 6.39385C227.645 8.08811 230.324 10.3056 232.802 13.0464C232.852 13.102 232.849 13.1866 232.795 13.239L223.65 22.38C223.629 22.4006 223.601 22.4122 223.572 22.4122C223.543 22.4122 223.516 22.4006 223.495 22.38C223.128 22.0228 222.782 21.683 222.456 21.3605C218.745 17.683 214.266 14.879 209.179 13.9533C201.245 12.5086 193.466 14.7914 187.436 20.0513C180.451 26.1451 176.757 35.2388 177.259 44.4764C177.827 54.9294 184.858 63.5645 195.569 64.6486C199.356 65.0322 203.08 64.6514 206.743 63.506C211.677 61.9633 215.941 58.8946 219.919 55.5965C219.982 55.5455 220.074 55.5529 220.126 55.6131L220.126 55.6133Z" fill="#0079C8"/>
</svg>
