<svg width="249" height="668" viewBox="0 0 249 668" fill="none" xmlns="http://www.w3.org/2000/svg">
<g filter="url(#filter0_d_2007_51)">
<path fill-rule="evenodd" clip-rule="evenodd" d="M181.942 218.281C180.147 226.802 178.904 235.423 179.176 244.161C179.347 249.659 181.023 255.615 181.961 261.058C182.724 265.493 182.651 270.449 182.433 274.934C182.405 275.516 182.47 276.079 182.613 276.644C184.186 282.837 186.094 288.94 187.457 295.189C198.242 344.644 194.929 395.834 181.751 444.498C180.666 448.505 180.325 453.26 180.133 457.394C179.782 464.969 179.702 472.569 179.746 480.15C179.786 487.008 181.694 493.731 182.903 500.438C184.495 509.263 184.811 518.19 183.864 527.106C181.93 545.307 177.302 562.809 172.775 580.495C171.819 584.226 170.873 587.965 169.977 591.711C169.504 593.687 169.003 595.721 168.646 597.721C167.685 603.11 168.058 609.015 168.837 614.403C169.166 616.677 168.591 618.418 167.911 620.523C167.749 621.025 167.419 621.949 167.604 622.482C168.514 625.115 169.681 627.731 170.859 630.253C172.211 633.144 175.138 635.795 177.345 638.067C180.558 641.376 183.389 644.808 184.219 649.498C184.64 651.878 184.359 654.34 182.575 656.128C178.459 660.253 171.474 662.057 165.953 663.518C163.649 664.127 161.42 663.885 159.466 662.852C153.885 666.027 147.428 664.393 143.296 659.031C139.434 654.016 139.777 650.393 139.983 645.101C135.215 642.566 133.781 639.04 135.071 633.055C135.808 629.636 136.576 626.107 137.073 622.645C137.248 621.418 136.977 620.023 136.707 618.824C136.299 617.016 135.782 615.246 135.586 613.393C135.467 612.273 135.614 611.164 136.008 610.111C138.36 603.821 140.167 598.456 140.193 591.675C140.224 583.727 139.595 575.957 138.634 568.071C137.442 558.285 135.894 548.514 134.511 538.751C133.14 529.071 133.51 519.818 135.158 510.18C136.575 501.901 137.684 494.038 135.067 485.853C134.002 482.519 132.811 479.048 131.921 475.668C128.956 464.409 127.59 452.875 127.892 441.239C128.034 435.81 128.144 430.379 128.201 424.949C128.252 420.176 127.519 415.05 126.77 410.337C126.27 407.2 125.675 404.07 125.135 400.937C123.693 409.384 121.723 417.628 121.937 426.344C122.038 430.469 122.138 434.595 122.227 438.721C122.265 440.54 122.328 442.386 122.317 444.204C122.241 456.789 120.564 469.343 116.644 481.327C115.902 483.593 115.187 485.892 114.603 488.204C114.305 489.384 113.953 490.813 113.881 492.031C113.659 495.776 113.696 499.637 114.281 503.35C116.272 516.014 117.812 527.253 115.843 540.035C113.727 553.774 111.864 567.554 110.335 581.369C109.309 590.639 109.942 600.108 114.049 608.614C115.207 611.01 114.751 613.973 114.195 616.474C113.836 618.093 113.183 620.02 112.989 621.612C112.948 621.956 112.947 622.331 113.005 622.672C113.692 626.605 114.448 630.527 115.24 634.441C116.233 639.345 114.069 643.09 109.994 645.127C111.011 652.872 108.702 659.689 100.963 663.316C97.0881 665.132 93.2348 665.018 89.908 662.894C89.4081 663.173 88.8895 663.414 88.3522 663.603C87.1293 664.034 85.7873 664.063 84.543 663.696C78.8959 662.024 72.4215 660.723 67.8731 656.748C66.3735 655.437 65.5408 653.476 65.6384 651.486C65.895 646.228 68.7833 641.744 72.5485 638.254C77.3415 633.811 80.5626 627.989 82.7145 621.874C81.3338 618.305 80.866 615.83 81.6533 611.719C82.9164 605.131 81.9246 597.937 80.2846 591.504C75.0051 570.801 69.1977 550.364 66.6408 529.094C65.4005 518.778 65.7306 508.433 67.6833 498.231C69.0774 490.94 70.3097 484.662 70.2442 477.192C70.1761 469.521 70.0237 461.836 69.6388 454.173C69.4597 450.615 68.7553 447.155 67.936 443.696C66.737 438.635 65.3884 433.615 64.2069 428.546C60.8267 414.046 58.612 399.253 57.1925 384.44C54.0422 351.56 56.44 318.915 64.4007 286.863C65.3096 283.203 66.7584 279.642 67.5671 275.981C67.6325 275.683 67.6406 275.399 67.6005 275.095C67.1447 271.585 66.8547 267.826 67.1915 264.294C67.7969 257.96 69.8486 251.642 70.1587 245.296C70.6131 235.976 69.3781 227.076 67.4561 218.212C66.0687 222.576 64.4822 226.878 62.7447 231.106C62.3865 231.977 62.1552 232.973 61.9801 233.896C61.2744 237.616 61.2718 241.813 61.1074 245.604C60.9015 250.367 60.5647 255.2 59.3244 259.822C53.2549 282.424 41.8579 303.511 33.7448 325.426C32.5794 328.573 31.3858 331.528 32.2947 334.907C32.316 334.989 32.3561 335.086 32.4056 335.155C35.4463 339.397 37.9444 344.442 37.8081 349.786C37.7319 352.768 37.637 355.757 37.5795 358.712C37.5782 359.554 37.665 360.395 37.8268 361.249C38.2157 363.306 38.9883 365.495 39.5683 367.521C40.3676 370.312 41.0693 373.202 41.215 376.11C41.4609 381.041 37.0288 383.751 32.8894 383.123C32.991 383.853 32.9883 384.601 32.8787 385.362C33.7489 386.263 34.5388 387.21 35.1202 388.373C36.3311 390.788 36.1841 393.336 34.9117 395.639L34.6604 398.914C34.5882 400.226 33.9574 401.49 32.9295 402.373C30.2016 404.714 26.7265 404.811 24.1308 402.215C23.234 401.317 20.9444 398.994 19.8751 398.44C19.0799 398.12 18.3488 397.566 17.7968 396.859L10.2785 387.214C9.07824 385.719 8.22951 383.857 7.86729 381.948C7.01188 377.44 5.80094 372.882 3.94576 368.675C3.26945 367.14 3.0409 365.425 3.31089 363.769L7.26316 339.552C7.00119 333.861 7.80982 328.132 9.20254 322.623C9.79063 320.297 10.1569 317.808 10.4803 315.432C11.0042 311.58 11.3932 307.699 11.738 303.826C13.1989 287.415 13.64 270.866 16.4709 254.603C17.3757 249.403 18.6923 243.851 20.9444 239.058C22.7568 235.202 24.7109 231.275 26.1985 227.286C27.5324 223.709 28.325 220.221 28.8249 216.433C29.0949 214.382 29.2833 212.296 29.4785 210.236C29.846 206.36 30.1842 202.48 30.5143 198.601C30.9902 193.03 32.5219 187.096 34.063 181.732C34.9665 178.589 34.9504 173.97 34.611 170.687C33.0993 156.071 33.8304 142.886 42.192 130.278C46.4317 123.885 53.7428 119.049 61.1608 117.264C65.7413 116.162 69.1442 115.303 73.4026 113.246C79.2474 110.422 85.2955 107.936 91.3555 105.614C95.0899 104.184 98.7482 102.334 99.113 97.9207C99.3429 95.1419 99.5408 92.3405 99.6089 89.5524C99.6437 88.1169 99.6838 86.4207 99.4793 84.9973C99.1478 82.681 97.6388 79.3395 96.6725 77.217C96.3517 76.514 96.1499 75.4862 96.0095 74.4463C94.0006 74.0908 92.2551 72.8184 91.3128 70.9819C87.9593 64.45 85.2086 57.3501 86.5291 49.8799C86.9221 47.6585 88.5875 45.9317 90.6966 45.4024C88.9818 30.7227 93.3283 15.6848 107.031 7.84178C118.928 1.03324 134.629 1.65876 145.569 10.0886C156.781 18.7282 159.511 31.8013 158.455 44.9774C159.378 45.2327 160.219 45.7539 160.863 46.4877C166.161 52.5277 161.281 65.5032 157.857 71.6328C156.76 73.5963 155.064 74.6067 153.156 74.8393C152.511 77.6113 151.543 80.3286 150.422 82.9176C149.338 85.421 149.776 90.3957 149.974 93.1732C150.093 94.8332 150.22 96.4999 150.399 98.1546C150.467 98.7788 150.538 99.6583 150.685 100.221C151.337 102.122 152.595 103.327 154.474 104.124C160.013 106.469 165.551 108.831 171.051 111.266C173.96 112.555 177.013 113.871 179.827 115.358C180.244 115.578 180.686 115.751 181.144 115.864C185.015 116.832 188.689 117.448 192.374 119.093C200.816 122.865 206.9 129.103 210.572 137.585C215.5 148.97 215.448 159.436 214.411 171.565C214.044 175.853 214.955 180.529 215.918 184.709C216.893 188.937 218.275 193.512 218.669 197.813C219.237 204.009 219.524 210.326 220.362 216.484C221.071 221.688 222.224 226.436 224.502 231.201C226.079 234.502 227.776 237.913 229.176 241.29C230.949 245.57 232.025 250.843 232.877 255.387C236.454 274.459 236.046 293.952 238.278 313.188C238.732 317.107 239.315 321.031 240.129 324.891C241.569 331.717 241.385 338.528 242.547 345.319C243.557 351.227 244.52 357.147 245.501 363.06C245.74 364.502 245.644 365.972 245.213 367.339L240.22 384.1C240.011 384.801 239.703 385.453 239.291 386.057C235.201 392.066 230.419 397.546 224.919 402.304C224.083 403.028 223.133 403.779 222.104 404.105C221.794 404.21 221.434 404.291 221.072 404.335C217.649 404.754 214.842 401.994 214.44 398.713C214.404 398.418 214.387 398.12 214.388 397.823C214.392 397.327 214.387 396.218 214.248 395.801C212.268 392.011 213.098 388.154 215.759 385.236C215.668 384.567 215.651 383.906 215.71 383.261C214.423 383.411 213.09 383.193 211.838 382.535C209.043 381.066 207.673 377.989 207.964 374.913C208.449 369.795 210.71 365.121 211.438 360.109C211.958 356.525 210.882 352.458 211.247 348.793C211.883 342.395 213.474 339.257 217.24 334.184C217.311 334.089 217.334 333.969 217.33 333.853C217.254 331.808 216.818 329.751 216.219 327.798C214.499 322.187 212.297 316.627 210.024 311.219C206.155 302.022 202.054 292.903 198.326 283.649C194.828 274.966 191.825 266.281 189.535 257.188C188.298 252.273 188.28 247.321 188.137 242.296C188.024 238.338 187.842 233.997 186.305 230.292C184.669 226.349 183.216 222.336 181.937 218.269L181.942 218.281ZM181.759 203.473C181.718 203.432 181.662 203.408 181.603 203.408C181.503 203.408 181.414 203.476 181.39 203.573C177.939 217.344 174.83 230.424 175.259 244.283C175.429 249.763 177.169 256.314 178.1 261.723C178.653 264.929 178.793 269.269 178.519 274.742C178.477 275.75 178.578 276.695 178.816 277.607C180.05 282.492 182.339 290.082 183.629 296.022C194.259 344.742 191.028 395.253 177.969 443.472C177.076 446.779 176.492 451.36 176.219 457.213C175.906 464.032 175.775 471.686 175.829 480.172C175.869 487.453 177.899 494.772 179.049 501.133C180.575 509.612 180.882 518.133 179.968 526.692C178.138 543.953 174.258 558.902 168.979 579.522C166.625 588.721 165.228 594.558 164.789 597.031C163.896 602.038 163.952 608.014 164.958 614.961C165.398 618.031 162.798 620.571 163.899 623.761C164.659 625.955 165.795 628.672 167.308 631.912C170.499 638.731 179.038 642.691 180.359 650.182C180.626 651.661 180.439 652.722 179.798 653.361C176.428 656.741 169.908 658.421 164.948 659.731C163.04 660.238 161.378 659.792 159.958 658.391C159.728 658.158 159.346 658.141 159.084 658.356C154.828 661.941 149.728 660.972 146.399 656.641C142.849 652.041 143.858 648.582 143.958 643.2C143.969 642.854 143.762 642.53 143.437 642.395C138.949 640.551 137.838 638.802 138.898 633.88C139.931 629.087 140.614 625.527 140.948 623.201C141.448 619.711 139.819 616.131 139.478 612.98C139.427 612.443 139.495 611.947 139.674 611.483C142.378 604.241 144.078 598.861 144.108 591.691C144.168 575.251 141.718 561.712 138.387 538.201C137.117 529.252 137.337 520.661 139.017 510.842C140.556 501.841 141.636 493.561 138.796 484.662C137.103 479.376 136.074 476.045 135.706 474.672C132.812 463.666 131.513 452.556 131.806 441.342C131.966 435.108 132.069 429.659 132.116 424.992C132.216 415.962 129.326 402.851 128.356 396.351C127.417 390.039 126.839 385.208 126.627 381.861C126.16 374.715 126.196 366.408 126.736 356.941C126.77 356.381 126.456 356.101 125.797 356.101C125.056 356.101 124.226 355.991 123.786 356.302C123.646 356.389 123.59 356.655 123.617 357.101C124.337 370.455 123.737 383.705 121.816 396.851C120.656 404.792 117.756 415.831 118.016 426.442C118.277 437.015 118.403 442.928 118.396 444.182C118.316 457.229 116.49 469.206 112.916 480.112C111.083 485.733 110.1 489.629 109.966 491.802C109.7 496.369 109.846 500.422 110.406 503.962C112.536 517.532 113.815 527.433 111.966 539.443C109.759 553.77 107.916 567.602 106.435 580.943C105.324 591.003 106.075 601.113 110.515 610.322C111.685 612.732 109.415 618.452 109.096 621.142C109.005 621.821 109.017 622.593 109.143 623.35C109.851 627.365 110.604 631.321 111.396 635.221C112.083 638.628 110.569 640.951 106.856 642.191C106.135 642.421 105.684 643.168 105.823 643.929C107.186 650.771 105.926 656.661 99.2962 659.771C95.9627 661.331 93.0356 660.871 90.5162 658.391C90.3878 658.268 90.2168 658.198 90.039 658.198C89.8813 658.198 89.7289 658.252 89.6073 658.351C88.6743 659.118 87.8203 659.638 87.0464 659.91C86.6013 660.065 86.1121 660.077 85.6497 659.941C79.9759 658.26 74.2059 657.09 70.4461 653.8C69.8339 653.269 69.5011 652.486 69.5465 651.68C69.747 647.47 72.2371 643.88 75.207 641.13C80.7163 636.02 84.3465 629.34 86.6975 622.33C86.8205 621.974 86.8112 621.584 86.6695 621.235C85.4171 618.141 84.7675 616.27 85.4973 612.46C86.6909 606.233 86.2177 598.928 84.0765 590.541C77.8467 566.1 72.9962 549.131 70.5262 528.63C69.326 518.59 69.6601 508.703 71.526 498.97C73.1259 490.58 74.2259 485.201 74.1564 477.16C74.0762 468.279 73.873 460.553 73.5469 453.979C73.1767 446.679 70.9473 440.229 68.0161 427.659C64.8966 414.279 62.5869 399.749 61.086 384.069C57.9664 351.522 60.3361 319.436 68.1966 287.81C69.076 284.24 70.6171 280.3 71.387 276.83C71.5554 276.058 71.5808 275.32 71.4806 274.594C70.9646 270.578 70.8337 267.27 71.0863 264.67C71.6062 259.179 73.7661 251.64 74.0668 245.49C74.7766 230.931 71.6664 217.89 67.8571 203.471C67.821 203.341 67.7034 203.253 67.5684 203.253C67.4307 203.253 67.3104 203.348 67.277 203.481C65.5568 211.862 62.8369 220.575 59.1172 229.621C58.7309 230.567 58.4008 231.751 58.1268 233.171C56.7875 240.261 57.8367 250.251 55.5365 258.81C49.7665 280.3 37.927 302.82 30.0666 324.07C28.456 328.401 27.3667 331.701 28.5068 335.931C28.6445 336.454 28.889 336.979 29.2165 337.443C32.423 341.908 33.9801 345.99 33.8865 349.691C33.7328 355.618 33.6566 358.614 33.6566 358.681C33.654 359.88 33.7622 360.941 33.9707 361.981C34.6457 365.621 37.0462 371.232 37.2962 376.311C37.4565 379.43 33.2664 380.251 31.327 378.12C26.947 373.341 27.3867 366.36 24.8071 361.33C24.7109 361.138 24.5131 361.015 24.2979 361.015C24.1375 361.015 23.9851 361.082 23.8782 361.199C21.9241 363.306 20.9685 365.766 21.0086 368.58C21.0487 371.83 21.169 375.33 23.8889 377.71C26.8481 380.29 30.1093 382.119 28.7086 385.919C28.6672 386.03 28.6471 386.149 28.6471 386.268C28.6471 386.543 28.7607 386.808 28.9599 386.998C30.9688 388.959 33.2597 391.029 31.2695 394.099C31.1372 394.306 31.0637 394.528 31.0476 394.758L30.7496 398.66C30.7335 398.946 30.5985 399.218 30.3753 399.404C29.1109 400.495 27.9521 400.509 26.8989 399.45C24.219 396.776 22.3786 395.237 21.3788 394.83C21.1903 394.755 21.0166 394.624 20.8843 394.456L13.3486 384.79C12.5747 383.826 11.984 382.563 11.714 381.223C10.7169 375.887 9.32283 371.179 7.52914 367.1C7.15489 366.264 7.02926 365.32 7.17628 364.407L11.1486 340.06C11.186 339.85 11.194 339.658 11.1793 339.465C10.9454 334.601 11.5522 329.31 12.9984 323.589C13.9314 319.896 14.8108 313.426 15.6382 304.179C16.658 292.679 17.6284 270.779 20.3282 255.279C21.3748 249.252 22.7622 244.402 24.4877 240.729C29.1082 230.899 31.478 226.299 32.7077 216.949C33.0338 214.501 33.6045 208.499 34.4172 198.938C34.7633 194.898 35.9008 189.525 37.8268 182.818C38.7463 179.618 38.9562 174.618 38.5071 170.287C37.097 156.627 37.6169 144.257 45.4573 132.447C49.2171 126.767 55.7677 122.597 62.0777 121.077C67.698 119.727 70.3979 119.057 75.108 116.777C80.0414 114.397 85.925 111.897 92.7576 109.278C98.0371 107.258 102.508 104.358 103.019 98.2468C103.579 91.3875 103.692 86.787 103.358 84.4466C103.077 82.4992 102.039 79.5494 100.238 75.5971C100.051 75.1908 99.8522 73.7807 99.6383 71.3668C99.6103 71.0594 99.367 70.8148 99.0583 70.7868L96.9585 70.6264C96.0389 70.5582 95.2209 70.0155 94.7986 69.1962C91.8487 63.4462 89.2277 57.1068 90.3879 50.5669C90.5282 49.753 91.2366 49.1569 92.0639 49.1569C92.2283 49.1569 92.3914 49.1809 92.5491 49.2277L94.8186 49.908C94.848 49.9174 94.8814 49.9241 94.9149 49.9254C95.13 49.9361 95.3132 49.7663 95.3252 49.5458C95.3265 49.5137 95.3238 49.4816 95.3185 49.4496C92.358 35.1976 95.1381 19.1666 108.978 11.2474C119.548 5.19803 133.449 5.70726 143.179 13.1975C154.759 22.1272 156.049 36.3471 153.909 50.0577C153.906 50.0791 153.905 50.1005 153.905 50.1219C153.905 50.3424 154.084 50.5215 154.305 50.5215C154.393 50.5215 154.48 50.4921 154.549 50.4373L156.468 48.947C156.656 48.7987 156.887 48.7185 157.125 48.7185C157.428 48.7185 157.718 48.8494 157.919 49.0767C161.697 53.3871 156.897 65.3268 154.438 69.7268C153.724 71.0073 152.435 71.3174 150.569 70.6571C150.513 70.6384 150.454 70.6277 150.395 70.6277C150.129 70.6277 149.906 70.8242 149.87 71.0875C149.462 74.187 148.449 77.614 146.829 81.3671C145.439 84.5669 145.778 89.3278 146.069 93.4565C146.395 97.9835 146.695 100.65 146.968 101.456C147.974 104.383 149.967 106.476 152.948 107.737C166.621 113.529 174.971 117.226 177.998 118.826C178.704 119.198 179.44 119.48 180.195 119.67C183.908 120.596 187.338 121.136 190.779 122.676C198.278 126.022 203.678 131.512 206.978 139.146C211.578 149.767 211.508 159.496 210.508 171.236C209.709 180.536 214.127 191.246 214.767 198.176C216.088 212.637 215.948 222.386 220.968 232.897C223.408 237.997 224.938 241.297 225.558 242.797C226.731 245.624 227.887 250.064 229.027 256.117C232.577 275.067 232.037 293.408 234.387 313.648C234.907 318.135 235.543 322.154 236.297 325.708C237.787 332.787 237.507 339.108 238.687 345.988C238.887 347.174 239.87 353.081 241.637 363.708C241.776 364.582 241.716 365.415 241.468 366.201L236.467 382.988C236.365 383.325 236.23 383.603 236.054 383.86C232.049 389.746 227.484 394.909 222.357 399.349C221.65 399.956 221.16 400.302 220.886 400.389C220.801 400.419 220.698 400.441 220.595 400.453C219.51 400.587 218.495 399.597 218.328 398.244C218.312 398.116 218.305 397.987 218.305 397.859C218.319 396.065 218.132 394.796 217.745 394.048C216.255 391.199 217.435 388.678 219.736 386.888C219.988 386.686 220.079 386.356 219.972 386.058C219.228 383.932 219.572 382.254 221.005 381.029C223.531 378.882 225.222 377.245 226.075 376.118C226.901 375.025 227.541 372.418 227.996 368.298C228.239 366.392 227.696 364.343 226.472 362.715L225.826 361.877C225.567 361.544 225.17 361.35 224.748 361.35C224.116 361.35 223.566 361.782 223.416 362.395C221.583 369.83 220.173 374.393 219.186 376.086C219.059 376.313 218.513 376.979 217.546 378.086C215.096 380.895 211.526 378.835 211.866 375.285C212.296 370.705 214.586 365.715 215.315 360.675C215.845 357.036 214.865 351.975 215.146 349.186C215.715 343.436 217.066 340.986 220.385 336.526C220.991 335.701 221.289 334.715 221.245 333.712C221.171 331.555 220.745 329.203 219.965 326.655C218.519 321.936 216.409 316.285 213.635 309.705C204.815 288.724 198.086 275.135 193.335 256.235C191.015 247.064 193.366 237.095 189.926 228.795C186.693 221.001 184.136 212.812 182.255 204.224C182.228 204.111 182.159 203.977 182.045 203.825C181.932 203.671 181.835 203.552 181.755 203.465L181.759 203.473Z" fill="#2596BE"/>
</g>
<defs>
<filter id="filter0_d_2007_51" x="0.000195265" y="-3.09944e-06" width="248.829" height="667.789" filterUnits="userSpaceOnUse" color-interpolation-filters="sRGB">
<feFlood flood-opacity="0" result="BackgroundImageFix"/>
<feColorMatrix in="SourceAlpha" type="matrix" values="0 0 0 0 0 0 0 0 0 0 0 0 0 0 0 0 0 0 127 0" result="hardAlpha"/>
<feOffset/>
<feGaussianBlur stdDeviation="1.6"/>
<feComposite in2="hardAlpha" operator="out"/>
<feColorMatrix type="matrix" values="0 0 0 0 0.145098 0 0 0 0 0.588235 0 0 0 0 0.745098 0 0 0 1 0"/>
<feBlend mode="normal" in2="BackgroundImageFix" result="effect1_dropShadow_2007_51"/>
<feBlend mode="normal" in="SourceGraphic" in2="effect1_dropShadow_2007_51" result="shape"/>
</filter>
</defs>
</svg>
