<svg width="146" height="146" viewBox="0 0 146 146" fill="none" xmlns="http://www.w3.org/2000/svg">
<mask id="mask0_6_14" style="mask-type:alpha" maskUnits="userSpaceOnUse" x="0" y="0" width="146" height="146">
<path d="M146 73C146 113.317 113.317 146 73 146C32.6832 146 0 113.317 0 73C0 32.6832 32.6832 0 73 0C113.317 0 146 32.6832 146 73ZM27.9309 73C27.9309 97.891 48.109 118.069 73 118.069C97.891 118.069 118.069 97.891 118.069 73C118.069 48.109 97.891 27.9309 73 27.9309C48.109 27.9309 27.9309 48.109 27.9309 73Z" fill="black"/>
</mask>
<g mask="url(#mask0_6_14)">
<path d="M29 119.5C28.7333 119.5 28.4333 119.4 28.1 119.2C27.2333 118.6 26.8 117.9 26.8 117.1C26.8 115.7 27.7 114.667 29.5 114C30.2333 113.667 31.0333 113.567 31.9 113.7C28.1667 111.5 25.1667 108.633 22.9 105.1C20.6333 101.5 19.5 97.6 19.5 93.4C19.5 91.1333 19.8667 88.8333 20.6 86.5C21.4 84.1 22.6333 81.7333 24.3 79.4C24.7667 78.8 25.2333 78.2 25.7 77.6C26.2333 77 26.7667 76.4333 27.3 75.9H27.2C27.7333 75.3667 28.1333 74.6667 28.4 73.8C28.6667 72.8667 28.8 72.0333 28.8 71.3C28.8 70.2333 28.4667 69.2333 27.8 68.3C27.2 67.3 26.5333 66.9 25.8 67.1C25.7333 67.1 25.6667 67.1333 25.6 67.2C25.6 67.2 25.5667 67.2 25.5 67.2C25.1667 67.2 25 67.0667 25 66.8C25 66.3333 25.3 65.9667 25.9 65.7C26.5667 65.2333 27.2333 65 27.9 65C28.8333 65 29.6 65.4 30.2 66.2C30.8667 67 31.2 68.0333 31.2 69.3C31.2 71.1667 30.5 72.8667 29.1 74.4C31.9 72.1333 35.1 70.3667 38.7 69.1C42.3 67.8333 45.9333 67.1333 49.6 67L49.7 66.9C51.1667 66.1667 52.1333 65.3 52.6 64.3C51.6 64.1 50.7667 63.5667 50.1 62.7C49.5 61.7667 49.2 60.7667 49.2 59.7C49.2 58.5667 49.3667 57.6333 49.7 56.9C50.0333 56.1 50.3333 55.4333 50.6 54.9C50.7333 54.5667 50.8667 54.2 51 53.8C51.1333 53.3333 51.2 52.8667 51.2 52.4C51.2 51.8 51.0667 51.2333 50.8 50.7C50.6 50.1667 50.1667 49.8333 49.5 49.7C49.5667 49.5667 49.7 49.4333 49.9 49.3C50.1 49.1667 50.4333 49.1 50.9 49.1C52.0333 49.1 53.1 49.6333 54.1 50.7C55.1 51.7667 55.9333 53.0333 56.6 54.5C57.2667 55.9 57.6 57.1667 57.6 58.3C57.6 59.9 57.1667 61.2667 56.3 62.4C55.5 63.5333 54.6 64.1667 53.6 64.3C53.2 65.3667 52.6 66.2333 51.8 66.9C55.3333 66.9667 58.7333 67.5667 62 68.7C65.2667 69.7667 68.1333 71.4333 70.6 73.7C72.4 75.3 73.7667 77.1667 74.7 79.3C75.5667 80.0333 76.4 80.4667 77.2 80.6C77.7333 80.7333 78.1667 80.8 78.5 80.8C79.0333 80.8 79.5 80.7 79.9 80.5C80.3 80.3 80.5333 80.0333 80.6 79.7C80.6 79.3667 80.7 79.2 80.9 79.2C81.3667 79.2 81.6 79.7333 81.6 80.8C81.6 81.6 81.3333 82.2333 80.8 82.7C80.2667 83.1 79.6333 83.3 78.9 83.3C78.6333 83.3 78.3 83.2667 77.9 83.2C77.5667 83.1333 77.2333 83 76.9 82.8C76.7 82.6667 76.4667 82.5333 76.2 82.4C76 82.2 75.8 82.0333 75.6 81.9C75.9333 83.2333 76.1 84.5 76.1 85.7C76.1 86.6333 76 87.5667 75.8 88.5C75.6 89.4333 75.2333 90.3333 74.7 91.2C74.8333 92.3333 74.6333 93.5 74.1 94.7C73.6333 95.8333 72.6333 96.7333 71.1 97.4C70.2333 97.7333 69.3333 97.9 68.4 97.9C67.4 97.9 66.3667 97.7667 65.3 97.5C64.2333 97.2333 63.2 96.9 62.2 96.5C61.7333 96.3 61.1333 96.2 60.4 96.2C59.7333 96.2 59.1 96.3 58.5 96.5C57.9667 96.7 57.5667 97 57.3 97.4C57.0333 97.8667 56.8333 98.2 56.7 98.4C56.6333 98.6 56.5 98.5 56.3 98.1C56.1 97.7 56 97.2667 56 96.8C56 95.5333 56.6 94.4667 57.8 93.6C58.7333 92.8667 59.8667 92.3333 61.2 92C62.6 91.6667 63.8 91.5 64.8 91.5C65.1333 91.5 65.4 91.5333 65.6 91.6C65.8667 91.6 66.1 91.6333 66.3 91.7C66.4333 91.7 66.5333 91.7333 66.6 91.8C66.7333 91.8 66.8333 91.8 66.9 91.8C66.4333 91.3333 66.2 90.7667 66.2 90.1C66.2 89.2333 66.5 88.5667 67.1 88.1C67.3667 87.9667 67.5333 87.9 67.6 87.9C67.7333 87.9 67.8333 88 67.9 88.2C68.0333 88.3333 68.0333 88.5 67.9 88.7C67.7 88.9667 67.6 89.2333 67.6 89.5C67.6 90.1667 67.9333 90.7667 68.6 91.3C69.3333 91.7667 70.1 91.9667 70.9 91.9C71.8333 91.7 72.6333 91.4 73.3 91C74.3 89.4667 74.8 87.7333 74.8 85.8C74.8 83.8667 74.3333 81.9333 73.4 80C72.5333 78 71.2667 76.2667 69.6 74.8C67.4667 72.8667 64.9667 71.4667 62.1 70.6C59.3 69.6667 56.4 69.2 53.4 69.2C48.8 69.2 44.2667 70.1333 39.8 72C35.3333 73.8667 31.7333 76.4667 29 79.8C29.4 79.6667 29.7667 79.5667 30.1 79.5C30.5 79.4333 30.9 79.4 31.3 79.4C31.9667 79.4 32.6333 79.5 33.3 79.7L33.4 79.6C34.0667 78.9333 35.0667 78.6 36.4 78.6C37.1333 78.6 37.9333 78.7667 38.8 79.1C39.6667 79.3667 40.4667 79.8333 41.2 80.5C42.2 81.3667 43.0667 82.6333 43.8 84.3C44.5333 85.9667 44.9 87.5667 44.9 89.1C44.9 90.1 44.7 90.9667 44.3 91.7C43.9667 92.1667 43.6333 92.4667 43.3 92.6C43.0333 92.6667 42.8333 92.6667 42.7 92.6C42.8333 92.2 42.9 91.9 42.9 91.7C42.9 90.8333 42.4667 90.1 41.6 89.5C40.7333 88.8333 39.9333 88.4333 39.2 88.3C38.5333 88.1667 37.8 88 37 87.8C36.2667 87.5333 35.4333 87.0667 34.5 86.4C33.8333 85.9333 33.3 85.3333 32.9 84.6C32.5667 83.8 32.4 83.0333 32.4 82.3C32.4 81.7 32.5 81.1667 32.7 80.7C32.4333 80.6333 32.1667 80.6 31.9 80.6C31.6333 80.5333 31.3667 80.5 31.1 80.5C30.1 80.5 28.9667 80.8333 27.7 81.5C26.3667 83.5 25.3667 85.5667 24.7 87.7C24.1 89.7667 23.8 91.8667 23.8 94C23.8 97.6667 24.6667 101.1 26.4 104.3C28.2 107.5 30.6667 110.133 33.8 112.2C36.9333 114.267 40.5333 115.467 44.6 115.8C45.1333 115.867 45.6667 115.9 46.2 115.9C46.8 115.9 47.3667 115.9 47.9 115.9C53.5667 115.9 58.6333 114.867 63.1 112.8C67.5667 110.8 71.5 108.2 74.9 105C78.3667 101.733 81.3667 98.3 83.9 94.7C86.5 91.1 88.7333 87.7 90.6 84.5C92.5333 81.2333 94.1667 78.6 95.5 76.6C98.1667 72.6667 100.9 68.8667 103.7 65.2C106.567 61.4667 109.533 58.1333 112.6 55.2C115.667 52.2667 118.867 50.0333 122.2 48.5C118.733 48.3667 115.067 48 111.2 47.4C107.4 46.8 104.1 46.5 101.3 46.5C96.7667 46.5 93.1333 47.2 90.4 48.6C87.6667 49.9333 85.6667 51.6 84.4 53.6C83.2 55.6 82.6 57.6 82.6 59.6C82.6 62.4 83.4 64.5 85 65.9C86.6 67.2333 88.4 67.9 90.4 67.9C92.3333 67.9 94.1667 67.3333 95.9 66.2C97.6333 65 98.8 63.4333 99.4 61.5V61.3C99.4 60.9667 99.4667 60.6 99.6 60.2C99.6667 59.9333 99.7 59.5 99.7 58.9C99.7 58.6333 99.7 58.3667 99.7 58.1C99.7 57.8333 99.6333 57.5667 99.5 57.3C99.3667 56.6333 99.1333 56.0667 98.8 55.6C98.5333 55.1333 98.2667 54.8 98 54.6C97.5333 54.2 96.8667 54 96 54C95.3333 54 94.8333 54.2 94.5 54.6C94.4333 54.8 94.3 54.9 94.1 54.9C93.6333 54.9 93.5333 54.4667 93.8 53.6C94 52.8667 94.3333 52.3333 94.8 52C95.3333 51.6 95.8667 51.4 96.4 51.4C97.4 51.4 98.3 51.9 99.1 52.9C100.033 54.0333 100.433 55.4333 100.3 57.1C100.367 57.3667 100.4 57.6333 100.4 57.9C100.467 58.1667 100.5 58.4 100.5 58.6C100.967 57.8667 101.467 57.3333 102 57C102.6 56.6 103.233 56.4 103.9 56.4C104.567 56.4 105.133 56.6 105.6 57C106.067 57.4 106.3 57.9667 106.3 58.7C106.3 59.2333 106.167 59.6 105.9 59.8C105.7 59.9333 105.567 59.8 105.5 59.4C105.367 58.8667 104.833 58.6 103.9 58.6C103.7 58.6 103.5 58.6333 103.3 58.7C103.1 58.7 102.9 58.7333 102.7 58.8C101.9 59.0667 101.167 59.6333 100.5 60.5C100.167 63.1 98.9667 65.1333 96.9 66.6C94.8333 68.0667 92.5333 68.8 90 68.8C88.3333 68.8 86.7 68.4333 85.1 67.7C83.5 66.9667 82.2 65.9 81.2 64.5C81.2 64.7 81.2 64.9 81.2 65.1C81.2 65.3 81.1667 65.5 81.1 65.7C80.6333 66.9 79.8 67.5 78.6 67.5C78 67.5 77.5 67.2667 77.1 66.8C76.8333 66.4667 76.7333 66.2333 76.8 66.1C76.9333 65.9 77.1333 65.8667 77.4 66C77.4667 66.0667 77.6 66.1 77.8 66.1C78.4 66.1 79 65.7 79.6 64.9C79.7333 64.6333 79.8667 64.2667 80 63.8C80.1333 63.3333 80.1333 62.8333 80 62.3C79.8 61.7 79.6333 61.0667 79.5 60.4C79.3667 59.6667 79.3 58.9333 79.3 58.2C79.3 56.6667 79.6667 55.1 80.4 53.5L80.2 53.6C79.2 54.0667 78.2667 54.2 77.4 54C77.1333 54.6 76.6333 55.1333 75.9 55.6C75.2333 56 74.4 56.2 73.4 56.2C72.6667 56.2 71.7333 55.9667 70.6 55.5C69.5333 55.0333 68.6 54.4333 67.8 53.7C67 52.9667 66.6 52.2 66.6 51.4V51.2C66.6 50.8667 66.6333 50.6333 66.7 50.5C66.8333 50.3667 66.9333 50.2667 67 50.2C67.1333 50.6667 67.4 51 67.8 51.2C68.2 51.4 68.6333 51.5 69.1 51.5C69.7 51.5 70.2667 51.3667 70.8 51.1C71.2 50.9 71.6667 50.7 72.2 50.5C72.7333 50.3 73.4 50.2 74.2 50.2C75.0667 50.2 75.8667 50.5 76.6 51.1C77.3333 51.6333 77.6667 52.3667 77.6 53.3H78C78.6667 53.3 79.3333 53.1 80 52.7C80.2667 52.5667 80.5 52.4333 80.7 52.3C80.9667 52.1 81.2 51.9333 81.4 51.8C82.7333 49.8667 84.7333 48.2333 87.4 46.9C90.1333 45.5667 93.6667 44.8333 98 44.7C99.4 44.7 101.367 44.8333 103.9 45.1C106.433 45.3 109.133 45.5667 112 45.9C114.933 46.2333 117.667 46.5333 120.2 46.8C122.8 47 124.833 47.1 126.3 47.1C127.9 46.7 129.533 46.5 131.2 46.5C132.6 46.5 133.3 46.7333 133.3 47.2C133.3 47.6667 132.6 47.9 131.2 47.9C128.933 47.9667 126.633 48.7667 124.3 50.3C122.033 51.8333 119.767 53.8 117.5 56.2C115.3 58.5333 113.2 61.0333 111.2 63.7C109.267 66.3 107.533 68.8333 106 71.3C104.467 73.7 103.233 75.6667 102.3 77.2C101.033 79.2667 99.3333 82 97.2 85.4C95.0667 88.7333 92.4333 92.2667 89.3 96C86.2333 99.7333 82.6667 103.267 78.6 106.6C74.5333 109.867 69.9667 112.533 64.9 114.6C59.9 116.733 54.3333 117.8 48.2 117.8C47.5333 117.8 46.8667 117.767 46.2 117.7C45.6 117.7 44.9333 117.667 44.2 117.6C42.3333 117.467 40.5333 117.133 38.8 116.6C37.0667 116.133 35.4 115.533 33.8 114.8C33.2 114.8 32.6333 114.9 32.1 115.1C31.5667 115.3 31.1333 115.5 30.8 115.7C30.1333 116.167 29.6333 116.7 29.3 117.3C28.9667 117.9 28.9333 118.4 29.2 118.8C29.3333 119.067 29.4 119.2 29.4 119.2C29.4 119.4 29.2667 119.5 29 119.5ZM64.8 111.4C63.4667 111.4 62.2333 110.967 61.1 110.1C60.0333 109.3 59.5 108.367 59.5 107.3C59.5 106.367 59.8 105.7 60.4 105.3C61.0667 104.9 61.7 104.7 62.3 104.7C62.7 104.7 62.9667 104.8 63.1 105C63.2333 105.133 63.0667 105.333 62.6 105.6C62.1333 105.867 61.9 106.367 61.9 107.1C61.9 107.767 62.1 108.4 62.5 109C62.7667 109.4 63.2 109.833 63.8 110.3C64.4667 110.767 65.2667 111 66.2 111H66.4C66.5333 111 66.3667 111.067 65.9 111.2C65.5 111.333 65.1333 111.4 64.8 111.4Z" fill="#0004FF"/>
<rect width="146" height="146" rx="73" fill="#2F23DD" fill-opacity="0.2"/>
<rect width="144" height="146" rx="72" fill="#2F23DD" fill-opacity="0.2"/>
<circle cx="73" cy="73" r="73" fill="url(#paint0_radial_6_14)"/>
</g>
<defs>
<radialGradient id="paint0_radial_6_14" cx="0" cy="0" r="1" gradientUnits="userSpaceOnUse" gradientTransform="translate(73 73) rotate(90) scale(58)">
<stop stop-color="white"/>
<stop offset="1" stop-color="white" stop-opacity="0"/>
</radialGradient>
</defs>
</svg>
